<?xml version="1.0" standalone="no"?>
<!DOCTYPE svg PUBLIC "-//W3C//DTD SVG 20010904//EN"
 "http://www.w3.org/TR/2001/REC-SVG-20010904/DTD/svg10.dtd">
<svg version="1.0" xmlns="http://www.w3.org/2000/svg"
 width="161.000000pt" height="161.000000pt" viewBox="0 0 161.000000 161.000000"
 preserveAspectRatio="xMidYMid meet">
<metadata>
Created by potrace 1.11, written by Peter Selinger 2001-2013
</metadata>
<g transform="translate(0.000000,161.000000) scale(0.100000,-0.100000)"
fill="#000000" stroke="none">
<path d="M675 1451 c-49 -26 -88 -79 -121 -167 -54 -145 -57 -188 -28 -429 6
-53 12 -142 19 -295 14 -274 11 -262 58 -281 40 -17 93 -15 237 6 152 22 193
43 233 120 21 39 22 50 20 448 -1 460 -2 467 -73 531 -61 55 -115 74 -235 82
-58 4 -77 2 -110 -15z"/>
<path d="M1251 1329 c-31 -12 -46 -33 -61 -84 -7 -22 -12 -41 -12 -42 0 -1
-10 -41 -22 -87 -31 -119 -27 -230 19 -594 8 -67 21 -132 28 -143 28 -46 179
-82 257 -62 25 7 47 37 55 78 7 38 8 413 0 520 -14 207 -77 360 -167 404 -49
23 -61 24 -97 10z"/>
<path d="M269 1161 c-100 -31 -120 -59 -149 -205 -26 -128 -33 -195 -44 -424
l-6 -122 27 -12 c46 -18 230 -13 292 8 77 27 96 56 96 147 0 40 -4 90 -8 112
-5 22 -10 90 -12 150 -8 256 -24 326 -77 344 -35 12 -81 13 -119 2z"/>
</g>
</svg>
