<?xml version="1.0" encoding="UTF-8" standalone="no"?>
<svg
   xmlns:dc="http://purl.org/dc/elements/1.1/"
   xmlns:cc="http://creativecommons.org/ns#"
   xmlns:rdf="http://www.w3.org/1999/02/22-rdf-syntax-ns#"
   xmlns:svg="http://www.w3.org/2000/svg"
   xmlns="http://www.w3.org/2000/svg"
   viewBox="0 0 2400 1288.516"
   height="1288.516"
   width="2400"
   xml:space="preserve"
   id="svg2"
   version="1.1"><metadata
     id="metadata8"><rdf:RDF><cc:Work
         rdf:about=""><dc:format>image/svg+xml</dc:format><dc:type
           rdf:resource="http://purl.org/dc/dcmitype/StillImage" /></cc:Work></rdf:RDF></metadata><defs
     id="defs6"><clipPath
       id="clipPath20"
       clipPathUnits="userSpaceOnUse"><path
         id="path18"
         d="M 0,966.387 H 1800 V 0 H 0 Z" /></clipPath></defs><g
     transform="matrix(1.3333333,0,0,-1.3333333,0,1288.516)"
     id="g10"><path
       id="path12"
       style="fill:#5a696b;fill-opacity:1;fill-rule:nonzero;stroke:none"
       d="M 413.255,595.035 H 435.44 V 455.124 h -22.185 z" /><g
       id="g14"><g
         clip-path="url(#clipPath20)"
         id="g16"><g
           transform="translate(604.7308,455.124)"
           id="g22"><path
             id="path24"
             style="fill:#5a696b;fill-opacity:1;fill-rule:nonzero;stroke:none"
             d="m 0,0 h -21.587 v 62.561 c 0,16.189 -6.996,24.783 -19.987,24.783 -12.192,0 -21.186,-8.994 -21.186,-24.984 V 0 h -21.787 v 64.559 c 0,14.191 -7.594,22.785 -19.987,22.785 -11.792,0 -20.987,-9.594 -20.987,-24.584 V 0 h -21.786 v 104.333 h 21.387 V 90.742 c 3.798,7.995 13.991,16.19 28.182,16.19 14.591,0 24.984,-6.796 29.981,-17.389 6.196,10.993 17.789,17.389 32.179,17.389 C -11.993,106.932 0,90.742 0,68.156 Z" /></g><g
           transform="translate(675.4821,471.9127)"
           id="g26"><path
             id="path28"
             style="fill:#5a696b;fill-opacity:1;fill-rule:nonzero;stroke:none"
             d="m 0,0 c 18.189,0 30.98,14.591 30.98,35.578 0,21.387 -13.391,35.178 -31.179,35.178 -19.188,0 -30.981,-15.99 -30.981,-35.178 C -31.18,12.992 -17.389,0 0,0 m -52.167,87.545 h 20.588 V 73.753 c 2.797,3.798 13.39,16.39 33.577,16.39 29.782,0 50.969,-22.785 50.969,-54.565 0,-32.38 -19.788,-54.965 -49.569,-54.965 -19.787,0 -30.98,11.992 -33.779,16.389 v -51.167 h -21.786 z" /></g><path
           id="path30"
           style="fill:#5a696b;fill-opacity:1;fill-rule:nonzero;stroke:none"
           d="m 741.637,599.632 h 21.786 V 455.124 h -21.786 z" /><path
           id="path32"
           style="fill:#5a696b;fill-opacity:1;fill-rule:nonzero;stroke:none"
           d="m 782.807,559.457 h 21.786 V 455.124 h -21.786 z m 10.794,39.375 c 7.595,0 13.591,-5.995 13.591,-13.591 0,-7.595 -5.996,-13.592 -13.591,-13.592 -7.596,0 -13.592,5.997 -13.592,13.592 0,7.596 5.996,13.591 13.592,13.591" /><g
           transform="translate(870.7481,542.6685)"
           id="g34"><path
             id="path36"
             style="fill:#5a696b;fill-opacity:1;fill-rule:nonzero;stroke:none"
             d="m 0,0 c -17.788,0 -31.18,-13.791 -31.18,-35.178 0,-20.987 12.993,-35.578 30.981,-35.578 17.388,0 31.179,12.992 31.179,35.578 C 30.98,-15.99 19.388,0 0,0 M 51.967,-124.921 H 30.381 v 51.168 c -2.798,-4.398 -13.991,-16.39 -33.778,-16.39 -29.781,0 -49.569,22.585 -49.569,54.965 0,31.78 20.986,54.565 50.968,54.565 20.187,0 30.78,-12.592 33.378,-16.389 v 13.791 h 20.587 z" /></g><g
           transform="translate(941.4995,496.6975)"
           id="g38"><path
             id="path40"
             style="fill:#5a696b;fill-opacity:1;fill-rule:nonzero;stroke:none"
             d="M 0,0 V 62.76 H 21.586 V -1.799 c 0,-14.391 8.994,-22.786 20.987,-22.786 13.791,0 22.785,9.994 22.785,24.385 V 62.76 H 87.144 V -41.574 H 65.757 v 13.591 C 61.161,-36.377 50.367,-44.172 36.376,-44.172 9.394,-44.172 0,-22.785 0,0" /></g><g
           transform="translate(1093.5985,600.0316)"
           id="g42"><path
             id="path44"
             style="fill:#5a696b;fill-opacity:1;fill-rule:nonzero;stroke:none"
             d="M 0,0 H 23.186 L 4.597,-28.581 h -18.388 z m 26.183,-82.947 c -0.798,17.19 -12.791,26.783 -27.782,26.783 -14.991,0 -26.583,-10.393 -27.982,-26.783 z m -27.982,44.971 c 31.58,0 50.168,-21.786 50.168,-54.565 0,-1.799 0,-3.598 -0.199,-5.396 h -78.551 c 0.4,-18.588 13.791,-30.581 32.379,-30.581 15.791,0 24.785,8.795 28.782,14.591 l 14.391,-10.794 c -4.996,-8.594 -18.787,-22.785 -43.572,-22.785 -32.579,0 -54.165,22.785 -54.165,54.366 0,32.379 22.185,55.164 50.767,55.164" /></g><g
           transform="translate(1234.4647,542.6685)"
           id="g46"><path
             id="path48"
             style="fill:#87b4c3;fill-opacity:1;fill-rule:nonzero;stroke:none"
             d="m 0,0 c -18.187,0 -30.979,-14.79 -30.979,-35.777 0,-21.387 13.391,-35.178 31.18,-35.178 19.188,0 30.98,15.99 30.98,35.178 C 31.181,-12.992 17.391,0 0,0 M 52.168,-87.545 H 31.581 v 13.591 c -2.799,-3.597 -13.391,-16.189 -33.579,-16.189 -29.78,0 -50.966,22.585 -50.966,54.565 0,32.18 19.787,54.965 49.567,54.965 19.787,0 30.979,-11.992 33.779,-16.59 v 54.167 h 21.786 z" /></g><g
           transform="translate(1343.5939,469.9143)"
           id="g50"><path
             id="path52"
             style="fill:#87b4c3;fill-opacity:1;fill-rule:nonzero;stroke:none"
             d="m 0,0 c 12.792,0 21.985,7.196 21.985,17.988 0,10.994 -8.994,17.99 -22.184,17.99 -13.193,0 -21.988,-7.596 -21.988,-17.99 C -22.187,7.595 -13.193,0 0,0 m -3.599,51.767 c 11.993,0 20.987,-3.997 24.984,-7.595 v 9.794 c 0,11.992 -8.394,19.188 -22.184,19.188 -11.595,0 -21.587,-3.998 -29.182,-8.195 l -8.395,15.19 c 8.395,5.397 22.386,11.992 39.775,11.992 30.979,0 41.573,-16.789 41.573,-39.574 V -14.79 H 23.984 l -1.8,7.794 c -5.395,-5.995 -13.79,-10.393 -26.781,-10.393 -21.987,0 -39.376,13.792 -39.376,34.779 0,20.187 16.391,34.377 40.374,34.377" /></g><g
           transform="translate(1491.696,517.8837)"
           id="g54"><path
             id="path56"
             style="fill:#87b4c3;fill-opacity:1;fill-rule:nonzero;stroke:none"
             d="M 0,0 V -62.76 H -21.585 V 1.799 c 0,14.391 -8.994,22.785 -20.987,22.785 -13.792,0 -22.786,-10.193 -22.786,-24.384 V -62.76 H -87.144 V 41.574 h 21.385 V 27.983 c 4.599,8.194 15.393,16.189 29.382,16.189 C -9.392,44.172 0,22.786 0,0" /></g><g
           transform="translate(1516.4763,484.1059)"
           id="g58"><path
             id="path60"
             style="fill:#87b4c3;fill-opacity:1;fill-rule:nonzero;stroke:none"
             d="m 0,0 c 4.796,-6.996 11.993,-13.592 24.984,-13.592 9.193,0 15.99,4.597 15.99,12.992 0,19.987 -50.769,12.792 -50.769,48.969 0,18.388 15.591,29.581 35.777,29.581 19.588,0 29.981,-11.393 33.978,-19.387 L 44.971,48.568 c -2.999,4.798 -8.594,11.594 -20.186,11.594 -7.996,0 -13.992,-4.198 -13.992,-11.394 0,-19.986 50.966,-11.592 50.966,-48.369 0,-19.388 -16.388,-31.979 -37.775,-31.979 -21.187,0 -32.378,11.393 -37.575,20.787 z" /></g><path
           id="path62"
           style="fill:#87b4c3;fill-opacity:1;fill-rule:nonzero;stroke:none"
           d="m 413.255,426.744 h 21.786 V 282.235 h -21.786 z" /><g
           transform="translate(526.9793,344.1955)"
           id="g64"><path
             id="path66"
             style="fill:#87b4c3;fill-opacity:1;fill-rule:nonzero;stroke:none"
             d="M 0,0 C -0.799,17.189 -12.792,26.783 -27.782,26.783 -42.773,26.783 -54.365,16.388 -55.764,0 Z m -27.983,44.971 c 31.58,0 50.168,-21.786 50.168,-54.565 0,-1.799 0,-3.598 -0.199,-5.398 h -78.55 c 0.399,-18.588 13.791,-30.578 32.379,-30.578 15.791,0 24.785,8.792 28.782,14.588 l 14.39,-10.791 C 13.991,-50.368 0.2,-64.559 -24.585,-64.559 c -32.579,0 -54.165,22.786 -54.165,54.365 0,32.381 22.186,55.165 50.767,55.165" /></g><g
           transform="translate(644.3408,367.181)"
           id="g68"><path
             id="path70"
             style="fill:#87b4c3;fill-opacity:1;fill-rule:nonzero;stroke:none"
             d="m 0,0 c -22.785,0 -29.381,-17.389 -29.381,-39.976 v -44.97 H -51.167 V 19.387 h 21.386 V 2.999 C -25.783,13.392 -14.79,21.985 0,21.985 Z" /></g><g
           transform="translate(701.9008,427.1433)"
           id="g72"><path
             id="path74"
             style="fill:#87b4c3;fill-opacity:1;fill-rule:nonzero;stroke:none"
             d="M 0,0 H 23.186 L 4.598,-28.581 h -18.389 z m 26.183,-82.948 c -0.8,17.189 -12.791,26.783 -27.782,26.783 -14.991,0 -26.583,-10.395 -27.982,-26.783 z m -27.981,44.971 c 31.579,0 50.167,-21.786 50.167,-54.565 0,-1.799 0,-3.598 -0.199,-5.398 h -78.551 c 0.4,-18.588 13.791,-30.578 32.379,-30.578 15.791,0 24.785,8.792 28.782,14.589 l 14.391,-10.792 c -4.996,-8.595 -18.787,-22.786 -43.572,-22.786 -32.579,0 -54.165,22.786 -54.165,54.365 0,32.381 22.185,55.165 50.768,55.165" /></g><g
           transform="translate(769.0569,311.2155)"
           id="g76"><path
             id="path78"
             style="fill:#87b4c3;fill-opacity:1;fill-rule:nonzero;stroke:none"
             d="m 0,0 c 4.796,-6.996 11.992,-13.591 24.984,-13.591 9.193,0 15.99,4.597 15.99,12.991 0,19.989 -50.768,12.792 -50.768,48.97 0,18.389 15.59,29.581 35.777,29.581 19.587,0 29.98,-11.394 33.978,-19.387 l -14.99,-9.995 c -2.998,4.798 -8.595,11.593 -20.187,11.593 -7.995,0 -13.992,-4.197 -13.992,-11.391 0,-19.989 50.968,-11.595 50.968,-48.37 0,-19.387 -16.39,-31.98 -37.776,-31.98 -21.187,0 -32.38,11.393 -37.576,20.786 z" /></g><g
           transform="translate(915.5613,344.1955)"
           id="g80"><path
             id="path82"
             style="fill:#87b4c3;fill-opacity:1;fill-rule:nonzero;stroke:none"
             d="M 0,0 C -0.799,17.189 -12.792,26.783 -27.782,26.783 -42.773,26.783 -54.365,16.388 -55.764,0 Z m -27.983,44.971 c 31.58,0 50.168,-21.786 50.168,-54.565 0,-1.799 0,-3.598 -0.199,-5.398 h -78.55 c 0.399,-18.588 13.791,-30.578 32.379,-30.578 15.791,0 24.785,8.792 28.782,14.588 l 14.39,-10.791 C 13.991,-50.368 0.2,-64.559 -24.585,-64.559 c -32.579,0 -54.165,22.786 -54.165,54.365 0,32.381 22.186,55.165 50.767,55.165" /></g><g
           transform="translate(987.9127,297.0249)"
           id="g84"><path
             id="path86"
             style="fill:#87b4c3;fill-opacity:1;fill-rule:nonzero;stroke:none"
             d="m 0,0 c 12.792,0 21.985,7.195 21.985,17.988 0,10.993 -8.994,17.989 -22.185,17.989 -13.192,0 -21.987,-7.594 -21.987,-17.989 C -22.187,7.595 -13.192,0 0,0 m -3.599,51.767 c 11.993,0 20.988,-3.997 24.984,-7.595 v 9.795 c 0,11.991 -8.394,19.188 -22.185,19.188 -11.592,0 -21.586,-3.999 -29.181,-8.195 l -8.395,15.188 c 8.395,5.398 22.386,11.993 39.775,11.993 30.98,0 41.573,-16.789 41.573,-39.575 V -14.79 H 23.985 l -1.8,7.794 c -5.396,-5.995 -13.791,-10.392 -26.783,-10.392 -21.986,0 -39.375,13.792 -39.375,34.777 0,20.188 16.39,34.378 40.374,34.378" /></g><g
           transform="translate(1048.0709,323.8082)"
           id="g88"><path
             id="path90"
             style="fill:#87b4c3;fill-opacity:1;fill-rule:nonzero;stroke:none"
             d="M 0,0 V 62.76 H 21.586 V -1.799 c 0,-14.39 8.994,-22.784 20.987,-22.784 13.791,0 22.785,9.992 22.785,24.384 V 62.76 H 87.144 V -41.574 H 65.757 v 13.591 C 61.161,-36.377 50.367,-44.172 36.376,-44.172 9.394,-44.172 0,-22.786 0,0" /></g><g
           transform="translate(1331.0536,296.8954)"
           id="g92"><path
             id="path94"
             style="fill:#5a696b;fill-opacity:1;fill-rule:nonzero;stroke:none"
             d="m 0,0 c 12.694,0 21.818,7.138 21.818,17.848 0,10.908 -8.926,17.855 -22.016,17.855 -13.092,0 -21.818,-7.541 -21.818,-17.855 C -22.016,7.534 -13.09,0 0,0 m -3.571,51.372 c 11.901,0 18.698,-2.941 24.795,-5.968 v 8.146 c 0,11.902 -8.332,19.044 -22.018,19.044 -11.504,0 -21.422,-3.969 -28.959,-8.136 l -8.33,15.075 c 8.33,5.355 22.214,11.906 39.471,11.906 30.744,0 41.258,-16.667 41.258,-39.275 V -14.679 H 23.802 l -1.786,4.575 c -5.465,-4.059 -13.686,-7.157 -26.579,-7.157 -21.818,0 -39.073,13.689 -39.073,34.514 0,20.034 16.263,34.119 40.065,34.119" /></g><g
           transform="translate(1225.9247,298.8778)"
           id="g96"><path
             id="path98"
             style="fill:#5a696b;fill-opacity:1;fill-rule:nonzero;stroke:none"
             d="M 0,0 C 19.24,0 33.322,14.877 33.322,35.108 33.322,55.34 19.24,70.213 0,70.213 -19.439,70.213 -32.926,55.142 -32.926,34.91 -32.926,14.481 -19.24,0 0,0 m 0,89.454 c 31.934,0 54.942,-23.206 54.942,-54.346 0,-31.143 -23.404,-54.349 -54.942,-54.349 -31.736,0 -54.744,22.81 -54.744,54.151 0,31.338 23.602,54.544 54.744,54.544" /></g><g
           transform="translate(1397.6998,310.978)"
           id="g100"><path
             id="path102"
             style="fill:#5a696b;fill-opacity:1;fill-rule:nonzero;stroke:none"
             d="m 0,0 c 4.761,-6.943 11.902,-13.49 24.794,-13.49 9.124,0 15.867,4.563 15.867,12.892 0,19.836 -50.379,12.694 -50.379,48.595 0,18.251 15.471,29.357 35.505,29.357 19.437,0 29.751,-11.304 33.718,-19.241 L 44.63,48.199 c -2.976,4.757 -8.53,11.502 -20.034,11.502 -7.935,0 -13.884,-4.167 -13.884,-11.304 0,-19.836 50.579,-11.506 50.579,-48.001 0,-19.241 -16.265,-31.738 -37.489,-31.738 -21.024,0 -32.132,11.308 -37.289,20.628 z" /></g><path
           id="path104"
           style="fill:#5a696b;fill-opacity:1;fill-rule:nonzero;stroke:none"
           d="m 1471.093,385.754 h 21.62 V 282.215 h -21.62 z m 10.71,39.073 c 7.537,0 13.488,-5.949 13.488,-13.486 0,-7.538 -5.951,-13.487 -13.488,-13.487 -7.537,0 -13.488,5.949 -13.488,13.487 0,7.537 5.951,13.486 13.488,13.486" /><g
           transform="translate(1518.0997,310.978)"
           id="g106"><path
             id="path108"
             style="fill:#5a696b;fill-opacity:1;fill-rule:nonzero;stroke:none"
             d="m 0,0 c 4.761,-6.943 11.902,-13.49 24.794,-13.49 9.124,0 15.867,4.563 15.867,12.892 0,19.836 -50.379,12.694 -50.379,48.595 0,18.251 15.471,29.357 35.505,29.357 19.437,0 29.751,-11.304 33.718,-19.241 L 44.63,48.199 c -2.976,4.757 -8.53,11.502 -20.034,11.502 -7.935,0 -13.884,-4.167 -13.884,-11.304 0,-19.836 50.579,-11.506 50.579,-48.001 0,-19.241 -16.265,-31.738 -37.489,-31.738 -21.024,0 -32.132,11.308 -37.289,20.628 z" /></g><g
           transform="translate(356.0213,614.5635)"
           id="g110"><path
             id="path112"
             style="fill:#87b4c3;fill-opacity:1;fill-rule:nonzero;stroke:none"
             d="m 0,0 c -6.965,-13.192 -38.447,-67.256 -59.921,-169.862 0,0 -1.691,84.803 46.914,207.447 0,0 -58.793,42.957 -65.565,48.611 -6.776,5.659 -112.488,88.183 -112.488,91.005 0,2.824 187.159,-97.715 192.189,-101.74 2.815,-2.255 4.51,-0.185 6.214,4.515 3.607,9.994 2.832,19.787 21.483,14.704 18.651,-5.092 30.081,-10.746 44.166,-12.4 14.717,-1.729 94.894,-13.044 97.147,-15.307 2.257,-2.262 -4.823,-1.624 -19.103,0.328 C 126.772,70.617 57.865,80.775 55.39,77.71 51.743,73.195 54.459,69.564 53.161,64.473 51.811,59.173 49.736,53.949 43.67,46.966 34.168,36.029 12.77,24.187 0,0" /></g></g></g></g></svg>